<?xml version="1.0" encoding="UTF-8" standalone="no"?>
<!-- Created with Inkscape (http://www.inkscape.org/) -->

<svg
   xmlns:dc="http://purl.org/dc/elements/1.1/"
   xmlns:cc="http://creativecommons.org/ns#"
   xmlns:rdf="http://www.w3.org/1999/02/22-rdf-syntax-ns#"
   xmlns:svg="http://www.w3.org/2000/svg"
   xmlns="http://www.w3.org/2000/svg"
   xmlns:sodipodi="http://sodipodi.sourceforge.net/DTD/sodipodi-0.dtd"
   xmlns:inkscape="http://www.inkscape.org/namespaces/inkscape"
   width="1052.3622"
   height="744.09448"
   id="svg2"
   version="1.1"
   inkscape:version="0.48.4 r9939"
   sodipodi:docname="grupypr_short.svg"
   inkscape:export-filename="/home/wiliam/grupypr.png"
   inkscape:export-xdpi="90"
   inkscape:export-ydpi="90">
  <defs
     id="defs4" />
  <sodipodi:namedview
     id="base"
     pagecolor="#ffffff"
     bordercolor="#666666"
     borderopacity="1.0"
     inkscape:pageopacity="0.0"
     inkscape:pageshadow="2"
     inkscape:zoom="0.75931218"
     inkscape:cx="526.18109"
     inkscape:cy="372.04724"
     inkscape:document-units="px"
     inkscape:current-layer="layer1"
     showgrid="false"
     units="mm"
     inkscape:window-width="1333"
     inkscape:window-height="744"
     inkscape:window-x="121"
     inkscape:window-y="1074"
     inkscape:window-maximized="1" />
  <metadata
     id="metadata7">
    <rdf:RDF>
      <cc:Work
         rdf:about="">
        <dc:format>image/svg+xml</dc:format>
        <dc:type
           rdf:resource="http://purl.org/dc/dcmitype/StillImage" />
        <dc:title></dc:title>
      </cc:Work>
    </rdf:RDF>
  </metadata>
  <g
     inkscape:label="Layer 1"
     inkscape:groupmode="layer"
     id="layer1"
     transform="translate(0,-308.26769)">
    <g
       id="g192823"
       transform="translate(-198.57493,-672.319)">
      <text
         sodipodi:linespacing="125%"
         id="text2985-8"
         y="1538.8467"
         x="423.64783"
         style="font-size:44.05303955px;font-style:normal;font-weight:normal;line-height:125%;letter-spacing:0px;word-spacing:0px;fill:#002b3d;fill-opacity:1;stroke:none;font-family:Sans"
         xml:space="preserve"><tspan
           style="font-size:385.46411133px;font-style:normal;font-variant:normal;font-weight:normal;font-stretch:normal;fill:#002b3d;fill-opacity:1;font-family:ImpactURWD-Bol;-inkscape-font-specification:ImpactURWD-Bol"
           y="1538.8467"
           x="423.64783"
           id="tspan2987-3"
           sodipodi:role="line">p</tspan></text>
      <text
         sodipodi:linespacing="125%"
         id="text2985-5-4"
         y="1539.882"
         x="742.97723"
         style="font-size:44.05303955px;font-style:normal;font-weight:normal;line-height:125%;letter-spacing:0px;word-spacing:0px;fill:#339900;fill-opacity:1;stroke:none;font-family:Sans"
         xml:space="preserve"><tspan
           style="font-size:385.46411133px;font-style:normal;font-variant:normal;font-weight:normal;font-stretch:normal;fill:#339900;fill-opacity:1;font-family:ImpactURWD-Bol;-inkscape-font-specification:ImpactURWD-Bol"
           y="1539.882"
           x="742.97723"
           id="tspan2987-0-5"
           sodipodi:role="line">pr</tspan></text>
      <path
         id="path192606-8"
         d="m 651.81201,1094.8124 c 14.57208,-19.9956 41.90846,-12.4904 62.99964,-13.0382 34.9511,2.3556 52.48144,37.5806 64.58834,65.9031 21.91291,54.7275 -0.32871,114.1663 -28.92507,161.7721 -24.4329,0.5478 -48.81103,0.5478 -73.24393,0.767 34.78677,-23.7755 64.6979,-59.7675 68.14918,-103.2647 0.16435,-14.9555 3.12259,-32.4311 -7.94344,-44.538 -17.42076,-6.1904 -33.6911,4.9304 -49.1945,11.34 -3.17737,-6.5739 -6.51909,-13.093 -9.5869,-19.7217 5.80693,5.04 11.33994,10.4087 17.09207,15.5582 18.13295,-8.3269 25.0903,-27.4459 30.02071,-45.1954 -21.69379,23.666 -50.18059,-0.055 -72.86046,-8.6008 -0.71217,4.1087 -2.24608,12.3808 -2.95825,16.5442 -2.41042,-12.2712 -9.20342,-27.6102 1.86261,-37.5258 z"
         inkscape:connector-curvature="0"
         style="fill:#002b3d" />
      <path
         id="path192608-9"
         d="m 680.90141,1106.5358 c 5.69736,-4.4374 9.25821,-15.6678 18.24251,-12.9834 8.05299,-0.4383 11.39471,8.546 16.87294,12.8738 -11.72341,0.8217 -23.44683,0.8765 -35.11545,0.1096 z"
         inkscape:connector-curvature="0"
         style="fill:#ffffff" />
      <path
         id="path192610-2"
         d="m 591.98973,1182.0258 c 14.90079,-26.679 68.20396,-32.1572 75.16131,3.2869 -13.36688,3.5061 -26.35028,8.2722 -39.33369,12.9834 -5.03996,-2.246 -10.13472,-4.4921 -15.22948,-6.6286 5.31389,14.5173 14.84601,27.0076 30.23984,31.6094 -0.38348,0.6026 -1.20521,1.753 -1.64348,2.3008 -11.06602,-6.4095 -22.95378,-15.2295 -36.37544,-10.0799 -7.28604,18.6807 -4.43736,40.8676 7.01213,57.3023 10.95647,16.3799 27.44594,27.7746 43.00411,39.4432 -23.11813,-2.7391 -46.40061,-2.4104 -69.6283,-2.9582 -10.62776,-41.3059 -21.20076,-90.336 6.793,-127.2593 z"
         inkscape:connector-curvature="0"
         style="fill:#339900" />
      <path
         id="path192612-5"
         d="m 624.74955,1170.138 c 6.84778,0.2192 13.75036,0.4931 20.65293,0.767 0.65738,2.8487 1.91737,8.4912 2.57477,11.3399 -8.54604,0.055 -17.09209,0.1644 -25.63813,0.2191 0.60261,-3.0678 1.80782,-9.2034 2.41043,-12.326 z"
         inkscape:connector-curvature="0"
         style="fill:#ffffff" />
      <path
         id="path192622-5"
         d="m 591.54923,1327.5112 c 18.46163,0.1644 36.97805,-0.6574 55.43969,0.3287 8.54603,7.2313 5.58779,20.1051 7.99821,29.9659 6.57388,38.8407 10.68255,78.1744 19.17381,116.6863 7.45039,-48.811 5.75214,-98.3342 12.76427,-147.2 19.61206,0.2739 39.16934,0.2191 58.78141,0.1096 -9.09387,67.9848 -16.27035,136.2435 -27.11724,203.9545 -3.06781,13.2573 -10.1895,27.3363 -23.5016,32.6502 -35.38938,14.2982 -74.33959,4.4922 -111.09851,9.4774 -26.62419,6.4643 -42.12759,30.7328 -57.85011,50.9475 2.95825,-29.4729 21.20075,-56.4258 46.67452,-71.217 18.29729,-10.4634 40.10065,-10.7373 59.4388,-18.3521 -9.9156,-69.683 -28.81549,-137.9418 -40.70325,-207.351 z"
         inkscape:connector-curvature="0"
         style="fill:#002b3d" />
    </g>
  </g>
</svg>
